<svg id="Layer_1" data-name="Layer 1" xmlns="http://www.w3.org/2000/svg" viewBox="0 0 1000 1000"><defs><style>.cls-1,.cls-2{fill:#0066f9;}.cls-1{opacity:0.5;}</style></defs><title>Artboard 5</title><path class="cls-1" d="M500,710.48,317.85,385.28a37.63,37.63,0,0,1,.24-37.19L467.42,89.45c14.47-25.07,50.66-25.07,65.14,0L984.91,872.94c14.47,25.07-3.62,56.41-32.57,56.41H648.07a37.59,37.59,0,0,1-32.57-18.8Z"/><path class="cls-2" d="M696,372.45l-47.23-81.8L532.59,89.51c-14.49-25.1-50.72-25.1-65.21,0L15.1,872.89C.61,898,18.72,929.35,47.7,929.35H351.89a37.65,37.65,0,0,0,32.6-18.81L613.58,514.08h0Z"/></svg>